<?xml version="1.0" encoding="UTF-8" standalone="no"?>
<!DOCTYPE svg PUBLIC "-//W3C//DTD SVG 1.1//EN"
 "http://www.w3.org/Graphics/SVG/1.1/DTD/svg11.dtd">
<!-- Generated by graphviz version 2.30.1 (20130609.1635)
 -->
<!-- Title: controllers_diagram Pages: 1 -->
<svg width="841pt" height="658pt"
 viewBox="0.00 0.00 841.00 658.00" xmlns="http://www.w3.org/2000/svg" xmlns:xlink="http://www.w3.org/1999/xlink">
<g id="graph0" class="graph" transform="scale(1 1) rotate(0) translate(4 654)">
<title>controllers_diagram</title>
<polygon fill="white" stroke="white" points="-4,5 -4,-654 838,-654 838,5 -4,5"/>
<!-- _diagram_info -->
<g id="node1" class="node"><title>_diagram_info</title>
<text text-anchor="start" x="624" y="-635.6" font-family="Times,serif" font-size="13.00">Controllers diagram</text>
<text text-anchor="start" x="624" y="-621.6" font-family="Times,serif" font-size="13.00">Date: Jul 07 2013 &#45; 01:45</text>
<text text-anchor="start" x="624" y="-607.6" font-family="Times,serif" font-size="13.00">Migration version: 20130704060625</text>
<text text-anchor="start" x="624" y="-593.6" font-family="Times,serif" font-size="13.00">Generated by RailRoady 1.1.0</text>
<text text-anchor="start" x="624" y="-579.6" font-family="Times,serif" font-size="13.00">http://railroady.prestonlee.com</text>
</g>
<!-- ApplicationController -->
<g id="node2" class="node"><title>ApplicationController</title>
<path fill="none" stroke="black" d="M215.372,-237.5C215.372,-237.5 400.372,-237.5 400.372,-237.5 406.372,-237.5 412.372,-243.5 412.372,-249.5 412.372,-249.5 412.372,-378.5 412.372,-378.5 412.372,-384.5 406.372,-390.5 400.372,-390.5 400.372,-390.5 215.372,-390.5 215.372,-390.5 209.372,-390.5 203.372,-384.5 203.372,-378.5 203.372,-378.5 203.372,-249.5 203.372,-249.5 203.372,-243.5 209.372,-237.5 215.372,-237.5"/>
<text text-anchor="middle" x="307.872" y="-375.3" font-family="Times,serif" font-size="14.00">ApplicationController</text>
<polyline fill="none" stroke="black" points="203.372,-367.5 412.372,-367.5 "/>
<text text-anchor="start" x="211.372" y="-352.3" font-family="Times,serif" font-size="14.00">_one_time_conditions_valid_18?</text>
<text text-anchor="start" x="211.372" y="-337.3" font-family="Times,serif" font-size="14.00">_one_time_conditions_valid_20?</text>
<text text-anchor="start" x="211.372" y="-322.3" font-family="Times,serif" font-size="14.00">after_sign_in_path_for</text>
<text text-anchor="start" x="211.372" y="-307.3" font-family="Times,serif" font-size="14.00">user_profile_update_required</text>
<text text-anchor="start" x="211.372" y="-292.3" font-family="Times,serif" font-size="14.00">user_required</text>
<polyline fill="none" stroke="black" points="203.372,-284.5 412.372,-284.5 "/>
<polyline fill="none" stroke="black" points="203.372,-260.5 412.372,-260.5 "/>
<text text-anchor="start" x="211.372" y="-245.3" font-family="Times,serif" font-size="14.00">_layout</text>
</g>
<!-- DoctorsController -->
<g id="node3" class="node"><title>DoctorsController</title>
<path fill="none" stroke="black" d="M410.792,-0.5C410.792,-0.5 535.792,-0.5 535.792,-0.5 541.792,-0.5 547.792,-6.5 547.792,-12.5 547.792,-12.5 547.792,-216.5 547.792,-216.5 547.792,-222.5 541.792,-228.5 535.792,-228.5 535.792,-228.5 410.792,-228.5 410.792,-228.5 404.792,-228.5 398.792,-222.5 398.792,-216.5 398.792,-216.5 398.792,-12.5 398.792,-12.5 398.792,-6.5 404.792,-0.5 410.792,-0.5"/>
<text text-anchor="middle" x="473.292" y="-213.3" font-family="Times,serif" font-size="14.00">DoctorsController</text>
<polyline fill="none" stroke="black" points="398.792,-205.5 547.792,-205.5 "/>
<text text-anchor="start" x="406.792" y="-190.3" font-family="Times,serif" font-size="14.00">about_patient_profile</text>
<text text-anchor="start" x="406.792" y="-175.3" font-family="Times,serif" font-size="14.00">claim_profile</text>
<text text-anchor="start" x="406.792" y="-160.3" font-family="Times,serif" font-size="14.00">dashboard</text>
<text text-anchor="start" x="406.792" y="-145.3" font-family="Times,serif" font-size="14.00">history_patient_profile</text>
<text text-anchor="start" x="406.792" y="-130.3" font-family="Times,serif" font-size="14.00">index</text>
<text text-anchor="start" x="406.792" y="-115.3" font-family="Times,serif" font-size="14.00">invite_patient</text>
<text text-anchor="start" x="406.792" y="-100.3" font-family="Times,serif" font-size="14.00">patient_profile</text>
<text text-anchor="start" x="406.792" y="-85.3" font-family="Times,serif" font-size="14.00">pending_claim</text>
<text text-anchor="start" x="406.792" y="-70.3" font-family="Times,serif" font-size="14.00">search</text>
<text text-anchor="start" x="406.792" y="-55.3" font-family="Times,serif" font-size="14.00">search_patients</text>
<polyline fill="none" stroke="black" points="398.792,-47.5 547.792,-47.5 "/>
<polyline fill="none" stroke="black" points="398.792,-23.5 547.792,-23.5 "/>
<text text-anchor="start" x="406.792" y="-8.3" font-family="Times,serif" font-size="14.00">_layout</text>
</g>
<!-- ApplicationController&#45;&gt;DoctorsController -->
<g id="edge1" class="edge"><title>ApplicationController&#45;&gt;DoctorsController</title>
<path fill="none" stroke="black" d="M371.355,-237.439C380.284,-226.67 389.529,-215.52 398.643,-204.529"/>
</g>
<!-- HomeController -->
<g id="node4" class="node"><title>HomeController</title>
<path fill="none" stroke="black" d="M124.306,-41.898C124.306,-41.898 212.306,-41.898 212.306,-41.898 218.306,-41.898 224.306,-47.898 224.306,-53.898 224.306,-53.898 224.306,-137.898 224.306,-137.898 224.306,-143.898 218.306,-149.898 212.306,-149.898 212.306,-149.898 124.306,-149.898 124.306,-149.898 118.306,-149.898 112.306,-143.898 112.306,-137.898 112.306,-137.898 112.306,-53.898 112.306,-53.898 112.306,-47.898 118.306,-41.898 124.306,-41.898"/>
<text text-anchor="middle" x="168.306" y="-134.698" font-family="Times,serif" font-size="14.00">HomeController</text>
<polyline fill="none" stroke="black" points="112.306,-126.898 224.306,-126.898 "/>
<text text-anchor="start" x="120.306" y="-111.698" font-family="Times,serif" font-size="14.00">index</text>
<text text-anchor="start" x="120.306" y="-96.698" font-family="Times,serif" font-size="14.00">login</text>
<polyline fill="none" stroke="black" points="112.306,-88.898 224.306,-88.898 "/>
<polyline fill="none" stroke="black" points="112.306,-64.898 224.306,-64.898 "/>
<text text-anchor="start" x="120.306" y="-49.698" font-family="Times,serif" font-size="14.00">_layout</text>
</g>
<!-- ApplicationController&#45;&gt;HomeController -->
<g id="edge2" class="edge"><title>ApplicationController&#45;&gt;HomeController</title>
<path fill="none" stroke="black" d="M258.862,-237.412C240.404,-208.568 219.813,-176.389 202.935,-150.014"/>
</g>
<!-- OrdersController -->
<g id="node5" class="node"><title>OrdersController</title>
<path fill="none" stroke="black" d="M12,-320.579C12,-320.579 104,-320.579 104,-320.579 110,-320.579 116,-326.579 116,-332.579 116,-332.579 116,-431.579 116,-431.579 116,-437.579 110,-443.579 104,-443.579 104,-443.579 12,-443.579 12,-443.579 6,-443.579 5.68434e-14,-437.579 5.68434e-14,-431.579 5.68434e-14,-431.579 5.68434e-14,-332.579 5.68434e-14,-332.579 5.68434e-14,-326.579 6,-320.579 12,-320.579"/>
<text text-anchor="middle" x="58" y="-428.379" font-family="Times,serif" font-size="14.00">OrdersController</text>
<polyline fill="none" stroke="black" points="5.68434e-14,-420.579 116,-420.579 "/>
<text text-anchor="start" x="8" y="-405.379" font-family="Times,serif" font-size="14.00">complete</text>
<text text-anchor="start" x="8" y="-390.379" font-family="Times,serif" font-size="14.00">create</text>
<text text-anchor="start" x="8" y="-375.379" font-family="Times,serif" font-size="14.00">new</text>
<polyline fill="none" stroke="black" points="5.68434e-14,-367.579 116,-367.579 "/>
<polyline fill="none" stroke="black" points="5.68434e-14,-343.579 116,-343.579 "/>
<text text-anchor="start" x="8" y="-328.379" font-family="Times,serif" font-size="14.00">_layout</text>
</g>
<!-- ApplicationController&#45;&gt;OrdersController -->
<g id="edge3" class="edge"><title>ApplicationController&#45;&gt;OrdersController</title>
<path fill="none" stroke="black" d="M203.352,-342.477C173.529,-350.603 142.111,-359.162 116.145,-366.237"/>
</g>
<!-- PrescriptionsController -->
<g id="node6" class="node"><title>PrescriptionsController</title>
<path fill="none" stroke="black" d="M453.111,-323.959C453.111,-323.959 646.111,-323.959 646.111,-323.959 652.111,-323.959 658.111,-329.959 658.111,-335.959 658.111,-335.959 658.111,-479.959 658.111,-479.959 658.111,-485.959 652.111,-491.959 646.111,-491.959 646.111,-491.959 453.111,-491.959 453.111,-491.959 447.111,-491.959 441.111,-485.959 441.111,-479.959 441.111,-479.959 441.111,-335.959 441.111,-335.959 441.111,-329.959 447.111,-323.959 453.111,-323.959"/>
<text text-anchor="middle" x="549.611" y="-476.759" font-family="Times,serif" font-size="14.00">PrescriptionsController</text>
<polyline fill="none" stroke="black" points="441.111,-468.959 658.111,-468.959 "/>
<text text-anchor="start" x="449.111" y="-453.759" font-family="Times,serif" font-size="14.00">_one_time_conditions_valid_312?</text>
<text text-anchor="start" x="449.111" y="-438.759" font-family="Times,serif" font-size="14.00">create</text>
<text text-anchor="start" x="449.111" y="-423.759" font-family="Times,serif" font-size="14.00">new</text>
<text text-anchor="start" x="449.111" y="-408.759" font-family="Times,serif" font-size="14.00">prescribe</text>
<text text-anchor="start" x="449.111" y="-393.759" font-family="Times,serif" font-size="14.00">review</text>
<text text-anchor="start" x="449.111" y="-378.759" font-family="Times,serif" font-size="14.00">upload</text>
<polyline fill="none" stroke="black" points="441.111,-370.959 658.111,-370.959 "/>
<polyline fill="none" stroke="black" points="441.111,-346.959 658.111,-346.959 "/>
<text text-anchor="start" x="449.111" y="-331.759" font-family="Times,serif" font-size="14.00">_layout</text>
</g>
<!-- ApplicationController&#45;&gt;PrescriptionsController -->
<g id="edge4" class="edge"><title>ApplicationController&#45;&gt;PrescriptionsController</title>
<path fill="none" stroke="black" d="M412.496,-354.665C421.939,-358.336 431.516,-362.058 440.992,-365.741"/>
</g>
<!-- UsersController -->
<g id="node8" class="node"><title>UsersController</title>
<path fill="none" stroke="black" d="M199.153,-511.451C199.153,-511.451 392.153,-511.451 392.153,-511.451 398.153,-511.451 404.153,-517.451 404.153,-523.451 404.153,-523.451 404.153,-622.451 404.153,-622.451 404.153,-628.451 398.153,-634.451 392.153,-634.451 392.153,-634.451 199.153,-634.451 199.153,-634.451 193.153,-634.451 187.153,-628.451 187.153,-622.451 187.153,-622.451 187.153,-523.451 187.153,-523.451 187.153,-517.451 193.153,-511.451 199.153,-511.451"/>
<text text-anchor="middle" x="295.653" y="-619.251" font-family="Times,serif" font-size="14.00">UsersController</text>
<polyline fill="none" stroke="black" points="187.153,-611.451 404.153,-611.451 "/>
<text text-anchor="start" x="195.153" y="-596.251" font-family="Times,serif" font-size="14.00">_one_time_conditions_valid_326?</text>
<text text-anchor="start" x="195.153" y="-581.251" font-family="Times,serif" font-size="14.00">_one_time_conditions_valid_328?</text>
<text text-anchor="start" x="195.153" y="-566.251" font-family="Times,serif" font-size="14.00">dashboard</text>
<polyline fill="none" stroke="black" points="187.153,-558.451 404.153,-558.451 "/>
<polyline fill="none" stroke="black" points="187.153,-534.451 404.153,-534.451 "/>
<text text-anchor="start" x="195.153" y="-519.251" font-family="Times,serif" font-size="14.00">_layout</text>
</g>
<!-- ApplicationController&#45;&gt;UsersController -->
<g id="edge5" class="edge"><title>ApplicationController&#45;&gt;UsersController</title>
<path fill="none" stroke="black" d="M304.256,-390.643C302.44,-429.12 300.27,-475.112 298.564,-511.274"/>
</g>
<!-- Users::RegistrationsController -->
<g id="node7" class="node"><title>Users::RegistrationsController</title>
<path fill="none" stroke="black" d="M628,-44.5C628,-44.5 821,-44.5 821,-44.5 827,-44.5 833,-50.5 833,-56.5 833,-56.5 833,-185.5 833,-185.5 833,-191.5 827,-197.5 821,-197.5 821,-197.5 628,-197.5 628,-197.5 622,-197.5 616,-191.5 616,-185.5 616,-185.5 616,-56.5 616,-56.5 616,-50.5 622,-44.5 628,-44.5"/>
<text text-anchor="middle" x="724.5" y="-182.3" font-family="Times,serif" font-size="14.00">Users::RegistrationsController</text>
<polyline fill="none" stroke="black" points="616,-174.5 833,-174.5 "/>
<text text-anchor="start" x="624" y="-159.3" font-family="Times,serif" font-size="14.00">_one_time_conditions_valid_322?</text>
<text text-anchor="start" x="624" y="-144.3" font-family="Times,serif" font-size="14.00">complete_profile</text>
<text text-anchor="start" x="624" y="-129.3" font-family="Times,serif" font-size="14.00">create</text>
<text text-anchor="start" x="624" y="-114.3" font-family="Times,serif" font-size="14.00">find_doctor</text>
<text text-anchor="start" x="624" y="-99.3" font-family="Times,serif" font-size="14.00">profile</text>
<polyline fill="none" stroke="black" points="616,-91.5 833,-91.5 "/>
<polyline fill="none" stroke="black" points="616,-67.5 833,-67.5 "/>
<text text-anchor="start" x="624" y="-52.3" font-family="Times,serif" font-size="14.00">_layout</text>
</g>
</g>
</svg>
