<?xml version="1.0" encoding="UTF-8" standalone="no"?>
<!DOCTYPE svg PUBLIC "-//W3C//DTD SVG 1.1//EN"
 "http://www.w3.org/Graphics/SVG/1.1/DTD/svg11.dtd">
<!-- Generated by graphviz version 2.30.1 (20130609.1635)
 -->
<!-- Title: models_diagram Pages: 1 -->
<svg width="1232pt" height="844pt"
 viewBox="0.00 0.00 1232.00 844.00" xmlns="http://www.w3.org/2000/svg" xmlns:xlink="http://www.w3.org/1999/xlink">
<g id="graph0" class="graph" transform="scale(1 1) rotate(0) translate(4 840)">
<title>models_diagram</title>
<polygon fill="white" stroke="white" points="-4,5 -4,-840 1229,-840 1229,5 -4,5"/>
<!-- _diagram_info -->
<g id="node1" class="node"><title>_diagram_info</title>
<text text-anchor="start" x="57.5" y="-814.6" font-family="Times,serif" font-size="13.00">Models diagram</text>
<text text-anchor="start" x="57.5" y="-800.6" font-family="Times,serif" font-size="13.00">Date: Jul 07 2013 &#45; 01:45</text>
<text text-anchor="start" x="57.5" y="-786.6" font-family="Times,serif" font-size="13.00">Migration version: 20130704060625</text>
<text text-anchor="start" x="57.5" y="-772.6" font-family="Times,serif" font-size="13.00">Generated by RailRoady 1.1.0</text>
<text text-anchor="start" x="57.5" y="-758.6" font-family="Times,serif" font-size="13.00">http://railroady.prestonlee.com</text>
</g>
<!-- Ability -->
<g id="node2" class="node"><title>Ability</title>
<polygon fill="none" stroke="black" points="276.5,-767 276.5,-813 333.5,-813 333.5,-767 276.5,-767"/>
<text text-anchor="middle" x="305" y="-797.8" font-family="Times,serif" font-size="14.00">Ability</text>
<polyline fill="none" stroke="black" points="276.5,-790 333.5,-790 "/>
<text text-anchor="middle" x="305" y="-774.8" font-family="Times,serif" font-size="14.00"> </text>
</g>
<!-- Address -->
<g id="node3" class="node"><title>Address</title>
<path fill="none" stroke="black" d="M363.5,-504C363.5,-504 474.5,-504 474.5,-504 480.5,-504 486.5,-510 486.5,-516 486.5,-516 486.5,-658 486.5,-658 486.5,-664 480.5,-670 474.5,-670 474.5,-670 363.5,-670 363.5,-670 357.5,-670 351.5,-664 351.5,-658 351.5,-658 351.5,-516 351.5,-516 351.5,-510 357.5,-504 363.5,-504"/>
<text text-anchor="middle" x="419" y="-654.8" font-family="Times,serif" font-size="14.00">Address</text>
<polyline fill="none" stroke="black" points="351.5,-647 486.5,-647 "/>
<text text-anchor="start" x="359.5" y="-631.8" font-family="Times,serif" font-size="14.00">id :integer</text>
<text text-anchor="start" x="359.5" y="-616.8" font-family="Times,serif" font-size="14.00">street :string</text>
<text text-anchor="start" x="359.5" y="-601.8" font-family="Times,serif" font-size="14.00">unit :string</text>
<text text-anchor="start" x="359.5" y="-586.8" font-family="Times,serif" font-size="14.00">city :string</text>
<text text-anchor="start" x="359.5" y="-571.8" font-family="Times,serif" font-size="14.00">province :string</text>
<text text-anchor="start" x="359.5" y="-556.8" font-family="Times,serif" font-size="14.00">postal_code :string</text>
<text text-anchor="start" x="359.5" y="-541.8" font-family="Times,serif" font-size="14.00">country_id :integer</text>
<text text-anchor="start" x="359.5" y="-526.8" font-family="Times,serif" font-size="14.00">created_at :datetime</text>
<text text-anchor="start" x="359.5" y="-511.8" font-family="Times,serif" font-size="14.00">updated_at :datetime</text>
</g>
<!-- Order -->
<g id="node11" class="node"><title>Order</title>
<path fill="none" stroke="black" d="M164.5,-196C164.5,-196 323.5,-196 323.5,-196 329.5,-196 335.5,-202 335.5,-208 335.5,-208 335.5,-380 335.5,-380 335.5,-386 329.5,-392 323.5,-392 323.5,-392 164.5,-392 164.5,-392 158.5,-392 152.5,-386 152.5,-380 152.5,-380 152.5,-208 152.5,-208 152.5,-202 158.5,-196 164.5,-196"/>
<text text-anchor="middle" x="244" y="-376.8" font-family="Times,serif" font-size="14.00">Order</text>
<polyline fill="none" stroke="black" points="152.5,-369 335.5,-369 "/>
<text text-anchor="start" x="160.5" y="-353.8" font-family="Times,serif" font-size="14.00">id :integer</text>
<text text-anchor="start" x="160.5" y="-338.8" font-family="Times,serif" font-size="14.00">state_id :integer</text>
<text text-anchor="start" x="160.5" y="-323.8" font-family="Times,serif" font-size="14.00">placed_at :datetime</text>
<text text-anchor="start" x="160.5" y="-308.8" font-family="Times,serif" font-size="14.00">created_at :datetime</text>
<text text-anchor="start" x="160.5" y="-293.8" font-family="Times,serif" font-size="14.00">updated_at :datetime</text>
<text text-anchor="start" x="160.5" y="-278.8" font-family="Times,serif" font-size="14.00">sub_total :decimal</text>
<text text-anchor="start" x="160.5" y="-263.8" font-family="Times,serif" font-size="14.00">tax :decimal</text>
<text text-anchor="start" x="160.5" y="-248.8" font-family="Times,serif" font-size="14.00">taxname :string</text>
<text text-anchor="start" x="160.5" y="-233.8" font-family="Times,serif" font-size="14.00">total :decimal</text>
<text text-anchor="start" x="160.5" y="-218.8" font-family="Times,serif" font-size="14.00">shipping_address_id :integer</text>
<text text-anchor="start" x="160.5" y="-203.8" font-family="Times,serif" font-size="14.00">user_id :integer</text>
</g>
<!-- Address&#45;&gt;Order -->
<g id="edge1" class="edge"><title>Address&#45;&gt;Order</title>
<path fill="none" stroke="#e716ac" d="M365.35,-496.788C347.156,-466.534 326.654,-432.441 307.751,-401.009"/>
<ellipse fill="none" stroke="#e716ac" cx="367.492" cy="-500.35" rx="4.00002" ry="4.00002"/>
<polygon fill="#e716ac" stroke="#e716ac" points="307.619,-400.789 306.322,-389.9 305.042,-396.504 302.465,-392.219 302.465,-392.219 302.465,-392.219 305.042,-396.504 298.609,-394.538 307.619,-400.789 307.619,-400.789"/>
</g>
<!-- Doctor -->
<g id="node7" class="node"><title>Doctor</title>
<path fill="none" stroke="black" d="M366,-158.5C366,-158.5 518,-158.5 518,-158.5 524,-158.5 530,-164.5 530,-170.5 530,-170.5 530,-417.5 530,-417.5 530,-423.5 524,-429.5 518,-429.5 518,-429.5 366,-429.5 366,-429.5 360,-429.5 354,-423.5 354,-417.5 354,-417.5 354,-170.5 354,-170.5 354,-164.5 360,-158.5 366,-158.5"/>
<text text-anchor="middle" x="442" y="-414.3" font-family="Times,serif" font-size="14.00">Doctor</text>
<polyline fill="none" stroke="black" points="354,-406.5 530,-406.5 "/>
<text text-anchor="start" x="362" y="-391.3" font-family="Times,serif" font-size="14.00">id :integer</text>
<text text-anchor="start" x="362" y="-376.3" font-family="Times,serif" font-size="14.00">first_name :string</text>
<text text-anchor="start" x="362" y="-361.3" font-family="Times,serif" font-size="14.00">last_name :string</text>
<text text-anchor="start" x="362" y="-346.3" font-family="Times,serif" font-size="14.00">created_at :datetime</text>
<text text-anchor="start" x="362" y="-331.3" font-family="Times,serif" font-size="14.00">updated_at :datetime</text>
<text text-anchor="start" x="362" y="-316.3" font-family="Times,serif" font-size="14.00">photo_file_name :string</text>
<text text-anchor="start" x="362" y="-301.3" font-family="Times,serif" font-size="14.00">photo_content_type :string</text>
<text text-anchor="start" x="362" y="-286.3" font-family="Times,serif" font-size="14.00">photo_file_size :integer</text>
<text text-anchor="start" x="362" y="-271.3" font-family="Times,serif" font-size="14.00">photo_updated_at :datetime</text>
<text text-anchor="start" x="362" y="-256.3" font-family="Times,serif" font-size="14.00">user_id :integer</text>
<text text-anchor="start" x="362" y="-241.3" font-family="Times,serif" font-size="14.00">address_id :integer</text>
<text text-anchor="start" x="362" y="-226.3" font-family="Times,serif" font-size="14.00">phone :string</text>
<text text-anchor="start" x="362" y="-211.3" font-family="Times,serif" font-size="14.00">fax :string</text>
<text text-anchor="start" x="362" y="-196.3" font-family="Times,serif" font-size="14.00">email :string</text>
<text text-anchor="start" x="362" y="-181.3" font-family="Times,serif" font-size="14.00">web_site :string</text>
<text text-anchor="start" x="362" y="-166.3" font-family="Times,serif" font-size="14.00">speciality :string</text>
</g>
<!-- Address&#45;&gt;Doctor -->
<g id="edge2" class="edge"><title>Address&#45;&gt;Doctor</title>
<path fill="none" stroke="#9e30b1" d="M426.149,-495.549C427.55,-477.824 429.052,-458.82 430.553,-439.831"/>
<ellipse fill="none" stroke="#9e30b1" cx="425.814" cy="-499.79" rx="4" ry="4"/>
<polygon fill="#9e30b1" stroke="#9e30b1" points="430.573,-439.57 435.847,-429.956 430.967,-434.586 431.361,-429.601 431.361,-429.601 431.361,-429.601 430.967,-434.586 426.875,-429.247 430.573,-439.57 430.573,-439.57"/>
</g>
<!-- AdminUser -->
<g id="node4" class="node"><title>AdminUser</title>
<path fill="none" stroke="black" d="M1027.5,-474C1027.5,-474 1212.5,-474 1212.5,-474 1218.5,-474 1224.5,-480 1224.5,-486 1224.5,-486 1224.5,-688 1224.5,-688 1224.5,-694 1218.5,-700 1212.5,-700 1212.5,-700 1027.5,-700 1027.5,-700 1021.5,-700 1015.5,-694 1015.5,-688 1015.5,-688 1015.5,-486 1015.5,-486 1015.5,-480 1021.5,-474 1027.5,-474"/>
<text text-anchor="middle" x="1120" y="-684.8" font-family="Times,serif" font-size="14.00">AdminUser</text>
<polyline fill="none" stroke="black" points="1015.5,-677 1224.5,-677 "/>
<text text-anchor="start" x="1023.5" y="-661.8" font-family="Times,serif" font-size="14.00">id :integer</text>
<text text-anchor="start" x="1023.5" y="-646.8" font-family="Times,serif" font-size="14.00">email :string</text>
<text text-anchor="start" x="1023.5" y="-631.8" font-family="Times,serif" font-size="14.00">encrypted_password :string</text>
<text text-anchor="start" x="1023.5" y="-616.8" font-family="Times,serif" font-size="14.00">reset_password_token :string</text>
<text text-anchor="start" x="1023.5" y="-601.8" font-family="Times,serif" font-size="14.00">reset_password_sent_at :datetime</text>
<text text-anchor="start" x="1023.5" y="-586.8" font-family="Times,serif" font-size="14.00">remember_created_at :datetime</text>
<text text-anchor="start" x="1023.5" y="-571.8" font-family="Times,serif" font-size="14.00">sign_in_count :integer</text>
<text text-anchor="start" x="1023.5" y="-556.8" font-family="Times,serif" font-size="14.00">current_sign_in_at :datetime</text>
<text text-anchor="start" x="1023.5" y="-541.8" font-family="Times,serif" font-size="14.00">last_sign_in_at :datetime</text>
<text text-anchor="start" x="1023.5" y="-526.8" font-family="Times,serif" font-size="14.00">current_sign_in_ip :string</text>
<text text-anchor="start" x="1023.5" y="-511.8" font-family="Times,serif" font-size="14.00">last_sign_in_ip :string</text>
<text text-anchor="start" x="1023.5" y="-496.8" font-family="Times,serif" font-size="14.00">created_at :datetime</text>
<text text-anchor="start" x="1023.5" y="-481.8" font-family="Times,serif" font-size="14.00">updated_at :datetime</text>
</g>
<!-- Role -->
<g id="node14" class="node"><title>Role</title>
<path fill="none" stroke="black" d="M1064.5,-248.5C1064.5,-248.5 1175.5,-248.5 1175.5,-248.5 1181.5,-248.5 1187.5,-254.5 1187.5,-260.5 1187.5,-260.5 1187.5,-327.5 1187.5,-327.5 1187.5,-333.5 1181.5,-339.5 1175.5,-339.5 1175.5,-339.5 1064.5,-339.5 1064.5,-339.5 1058.5,-339.5 1052.5,-333.5 1052.5,-327.5 1052.5,-327.5 1052.5,-260.5 1052.5,-260.5 1052.5,-254.5 1058.5,-248.5 1064.5,-248.5"/>
<text text-anchor="middle" x="1120" y="-324.3" font-family="Times,serif" font-size="14.00">Role</text>
<polyline fill="none" stroke="black" points="1052.5,-316.5 1187.5,-316.5 "/>
<text text-anchor="start" x="1060.5" y="-301.3" font-family="Times,serif" font-size="14.00">id :integer</text>
<text text-anchor="start" x="1060.5" y="-286.3" font-family="Times,serif" font-size="14.00">name :string</text>
<text text-anchor="start" x="1060.5" y="-271.3" font-family="Times,serif" font-size="14.00">created_at :datetime</text>
<text text-anchor="start" x="1060.5" y="-256.3" font-family="Times,serif" font-size="14.00">updated_at :datetime</text>
</g>
<!-- AdminUser&#45;&gt;Role -->
<g id="edge3" class="edge"><title>AdminUser&#45;&gt;Role</title>
<path fill="none" stroke="#a3d1b9" d="M1120,-465.644C1120,-425.506 1120,-382.735 1120,-350.054"/>
<ellipse fill="none" stroke="#a3d1b9" cx="1120" cy="-469.908" rx="4" ry="4"/>
<polygon fill="#a3d1b9" stroke="#a3d1b9" points="1120,-349.814 1124.5,-339.814 1120,-344.814 1120,-339.814 1120,-339.814 1120,-339.814 1120,-344.814 1115.5,-339.814 1120,-349.814 1120,-349.814"/>
</g>
<!-- AdministrationMethod -->
<g id="node5" class="node"><title>AdministrationMethod</title>
<path fill="none" stroke="black" d="M516.5,-744.5C516.5,-744.5 641.5,-744.5 641.5,-744.5 647.5,-744.5 653.5,-750.5 653.5,-756.5 653.5,-756.5 653.5,-823.5 653.5,-823.5 653.5,-829.5 647.5,-835.5 641.5,-835.5 641.5,-835.5 516.5,-835.5 516.5,-835.5 510.5,-835.5 504.5,-829.5 504.5,-823.5 504.5,-823.5 504.5,-756.5 504.5,-756.5 504.5,-750.5 510.5,-744.5 516.5,-744.5"/>
<text text-anchor="middle" x="579" y="-820.3" font-family="Times,serif" font-size="14.00">AdministrationMethod</text>
<polyline fill="none" stroke="black" points="504.5,-812.5 653.5,-812.5 "/>
<text text-anchor="start" x="512.5" y="-797.3" font-family="Times,serif" font-size="14.00">id :integer</text>
<text text-anchor="start" x="512.5" y="-782.3" font-family="Times,serif" font-size="14.00">name :string</text>
<text text-anchor="start" x="512.5" y="-767.3" font-family="Times,serif" font-size="14.00">created_at :datetime</text>
<text text-anchor="start" x="512.5" y="-752.3" font-family="Times,serif" font-size="14.00">updated_at :datetime</text>
</g>
<!-- Country -->
<g id="node6" class="node"><title>Country</title>
<path fill="none" stroke="black" d="M363.5,-744.5C363.5,-744.5 474.5,-744.5 474.5,-744.5 480.5,-744.5 486.5,-750.5 486.5,-756.5 486.5,-756.5 486.5,-823.5 486.5,-823.5 486.5,-829.5 480.5,-835.5 474.5,-835.5 474.5,-835.5 363.5,-835.5 363.5,-835.5 357.5,-835.5 351.5,-829.5 351.5,-823.5 351.5,-823.5 351.5,-756.5 351.5,-756.5 351.5,-750.5 357.5,-744.5 363.5,-744.5"/>
<text text-anchor="middle" x="419" y="-820.3" font-family="Times,serif" font-size="14.00">Country</text>
<polyline fill="none" stroke="black" points="351.5,-812.5 486.5,-812.5 "/>
<text text-anchor="start" x="359.5" y="-797.3" font-family="Times,serif" font-size="14.00">id :integer</text>
<text text-anchor="start" x="359.5" y="-782.3" font-family="Times,serif" font-size="14.00">name :string</text>
<text text-anchor="start" x="359.5" y="-767.3" font-family="Times,serif" font-size="14.00">created_at :datetime</text>
<text text-anchor="start" x="359.5" y="-752.3" font-family="Times,serif" font-size="14.00">updated_at :datetime</text>
</g>
<!-- Country&#45;&gt;Address -->
<g id="edge4" class="edge"><title>Country&#45;&gt;Address</title>
<path fill="none" stroke="#7aecca" d="M419,-736.235C419,-719.012 419,-699.352 419,-680.106"/>
<ellipse fill="none" stroke="#7aecca" cx="419" cy="-740.392" rx="4" ry="4"/>
<polygon fill="#7aecca" stroke="#7aecca" points="419,-680.094 423.5,-670.094 419,-675.094 419,-670.094 419,-670.094 419,-670.094 419,-675.094 414.5,-670.094 419,-680.094 419,-680.094"/>
</g>
<!-- DoctorPatient -->
<g id="node8" class="node"><title>DoctorPatient</title>
<path fill="none" stroke="black" d="M444.5,-0.5C444.5,-0.5 555.5,-0.5 555.5,-0.5 561.5,-0.5 567.5,-6.5 567.5,-12.5 567.5,-12.5 567.5,-109.5 567.5,-109.5 567.5,-115.5 561.5,-121.5 555.5,-121.5 555.5,-121.5 444.5,-121.5 444.5,-121.5 438.5,-121.5 432.5,-115.5 432.5,-109.5 432.5,-109.5 432.5,-12.5 432.5,-12.5 432.5,-6.5 438.5,-0.5 444.5,-0.5"/>
<text text-anchor="middle" x="500" y="-106.3" font-family="Times,serif" font-size="14.00">DoctorPatient</text>
<polyline fill="none" stroke="black" points="432.5,-98.5 567.5,-98.5 "/>
<text text-anchor="start" x="440.5" y="-83.3" font-family="Times,serif" font-size="14.00">id :integer</text>
<text text-anchor="start" x="440.5" y="-68.3" font-family="Times,serif" font-size="14.00">doctor_id :integer</text>
<text text-anchor="start" x="440.5" y="-53.3" font-family="Times,serif" font-size="14.00">user_id :integer</text>
<text text-anchor="start" x="440.5" y="-38.3" font-family="Times,serif" font-size="14.00">state_id :integer</text>
<text text-anchor="start" x="440.5" y="-23.3" font-family="Times,serif" font-size="14.00">created_at :datetime</text>
<text text-anchor="start" x="440.5" y="-8.3" font-family="Times,serif" font-size="14.00">updated_at :datetime</text>
</g>
<!-- Doctor&#45;&gt;DoctorPatient -->
<g id="edge5" class="edge"><title>Doctor&#45;&gt;DoctorPatient</title>
<path fill="none" stroke="#ad1504" d="M477.839,-150.26C479.439,-143.888 481.01,-137.634 482.53,-131.58"/>
<ellipse fill="none" stroke="#ad1504" cx="476.797" cy="-154.413" rx="4.00001" ry="4.00001"/>
<polygon fill="#ad1504" stroke="#ad1504" points="482.601,-131.296 489.401,-122.693 483.819,-126.446 485.036,-121.597 485.036,-121.597 485.036,-121.597 483.819,-126.446 480.672,-120.501 482.601,-131.296 482.601,-131.296"/>
</g>
<!-- Item -->
<g id="node9" class="node"><title>Item</title>
<path fill="none" stroke="black" d="M11.5,-241C11.5,-241 122.5,-241 122.5,-241 128.5,-241 134.5,-247 134.5,-253 134.5,-253 134.5,-335 134.5,-335 134.5,-341 128.5,-347 122.5,-347 122.5,-347 11.5,-347 11.5,-347 5.5,-347 -0.5,-341 -0.5,-335 -0.5,-335 -0.5,-253 -0.5,-253 -0.5,-247 5.5,-241 11.5,-241"/>
<text text-anchor="middle" x="67" y="-331.8" font-family="Times,serif" font-size="14.00">Item</text>
<polyline fill="none" stroke="black" points="-0.5,-324 134.5,-324 "/>
<text text-anchor="start" x="7.5" y="-308.8" font-family="Times,serif" font-size="14.00">id :integer</text>
<text text-anchor="start" x="7.5" y="-293.8" font-family="Times,serif" font-size="14.00">name :string</text>
<text text-anchor="start" x="7.5" y="-278.8" font-family="Times,serif" font-size="14.00">created_at :datetime</text>
<text text-anchor="start" x="7.5" y="-263.8" font-family="Times,serif" font-size="14.00">updated_at :datetime</text>
<text text-anchor="start" x="7.5" y="-248.8" font-family="Times,serif" font-size="14.00">description :string</text>
</g>
<!-- LineItem -->
<g id="node10" class="node"><title>LineItem</title>
<path fill="none" stroke="black" d="M100.5,-0.5C100.5,-0.5 211.5,-0.5 211.5,-0.5 217.5,-0.5 223.5,-6.5 223.5,-12.5 223.5,-12.5 223.5,-109.5 223.5,-109.5 223.5,-115.5 217.5,-121.5 211.5,-121.5 211.5,-121.5 100.5,-121.5 100.5,-121.5 94.5,-121.5 88.5,-115.5 88.5,-109.5 88.5,-109.5 88.5,-12.5 88.5,-12.5 88.5,-6.5 94.5,-0.5 100.5,-0.5"/>
<text text-anchor="middle" x="156" y="-106.3" font-family="Times,serif" font-size="14.00">LineItem</text>
<polyline fill="none" stroke="black" points="88.5,-98.5 223.5,-98.5 "/>
<text text-anchor="start" x="96.5" y="-83.3" font-family="Times,serif" font-size="14.00">id :integer</text>
<text text-anchor="start" x="96.5" y="-68.3" font-family="Times,serif" font-size="14.00">item_id :integer</text>
<text text-anchor="start" x="96.5" y="-53.3" font-family="Times,serif" font-size="14.00">price :decimal</text>
<text text-anchor="start" x="96.5" y="-38.3" font-family="Times,serif" font-size="14.00">created_at :datetime</text>
<text text-anchor="start" x="96.5" y="-23.3" font-family="Times,serif" font-size="14.00">updated_at :datetime</text>
<text text-anchor="start" x="96.5" y="-8.3" font-family="Times,serif" font-size="14.00">order_id :integer</text>
</g>
<!-- Item&#45;&gt;LineItem -->
<g id="edge6" class="edge"><title>Item&#45;&gt;LineItem</title>
<path fill="none" stroke="#408fc7" d="M90.0238,-233.242C102.056,-202.012 116.843,-163.631 129.367,-131.126"/>
<ellipse fill="none" stroke="#408fc7" cx="88.5224" cy="-237.139" rx="4.00001" ry="4.00001"/>
<polygon fill="#408fc7" stroke="#408fc7" points="129.41,-131.016 137.204,-123.302 131.207,-126.35 133.005,-121.684 133.005,-121.684 133.005,-121.684 131.207,-126.35 128.806,-120.066 129.41,-131.016 129.41,-131.016"/>
</g>
<!-- Order&#45;&gt;LineItem -->
<g id="edge7" class="edge"><title>Order&#45;&gt;LineItem</title>
<path fill="none" stroke="#9f7f83" d="M204.004,-188.009C196.685,-168.798 189.217,-149.196 182.42,-131.352"/>
<ellipse fill="none" stroke="#9f7f83" cx="205.511" cy="-191.967" rx="4.00001" ry="4.00001"/>
<polygon fill="#9f7f83" stroke="#9f7f83" points="182.278,-130.979 182.923,-120.032 180.498,-126.306 178.718,-121.634 178.718,-121.634 178.718,-121.634 180.498,-126.306 174.512,-123.236 182.278,-130.979 182.278,-130.979"/>
</g>
<!-- Prescription -->
<g id="node12" class="node"><title>Prescription</title>
<path fill="none" stroke="black" d="M792,-166C792,-166 1022,-166 1022,-166 1028,-166 1034,-172 1034,-178 1034,-178 1034,-410 1034,-410 1034,-416 1028,-422 1022,-422 1022,-422 792,-422 792,-422 786,-422 780,-416 780,-410 780,-410 780,-178 780,-178 780,-172 786,-166 792,-166"/>
<text text-anchor="middle" x="907" y="-406.8" font-family="Times,serif" font-size="14.00">Prescription</text>
<polyline fill="none" stroke="black" points="780,-399 1034,-399 "/>
<text text-anchor="start" x="788" y="-383.8" font-family="Times,serif" font-size="14.00">id :integer</text>
<text text-anchor="start" x="788" y="-368.8" font-family="Times,serif" font-size="14.00">description :text</text>
<text text-anchor="start" x="788" y="-353.8" font-family="Times,serif" font-size="14.00">created_at :datetime</text>
<text text-anchor="start" x="788" y="-338.8" font-family="Times,serif" font-size="14.00">updated_at :datetime</text>
<text text-anchor="start" x="788" y="-323.8" font-family="Times,serif" font-size="14.00">prescription_image_file_name :string</text>
<text text-anchor="start" x="788" y="-308.8" font-family="Times,serif" font-size="14.00">prescription_image_content_type :string</text>
<text text-anchor="start" x="788" y="-293.8" font-family="Times,serif" font-size="14.00">prescription_image_file_size :integer</text>
<text text-anchor="start" x="788" y="-278.8" font-family="Times,serif" font-size="14.00">prescription_image_updated_at :datetime</text>
<text text-anchor="start" x="788" y="-263.8" font-family="Times,serif" font-size="14.00">symptom :string</text>
<text text-anchor="start" x="788" y="-248.8" font-family="Times,serif" font-size="14.00">user_id :integer</text>
<text text-anchor="start" x="788" y="-233.8" font-family="Times,serif" font-size="14.00">current_dosage :integer</text>
<text text-anchor="start" x="788" y="-218.8" font-family="Times,serif" font-size="14.00">dosage :integer</text>
<text text-anchor="start" x="788" y="-203.8" font-family="Times,serif" font-size="14.00">item_id :integer</text>
<text text-anchor="start" x="788" y="-188.8" font-family="Times,serif" font-size="14.00">administration_method_id :integer</text>
<text text-anchor="start" x="788" y="-173.8" font-family="Times,serif" font-size="14.00">expiration :date</text>
</g>
<!-- Profile -->
<g id="node13" class="node"><title>Profile</title>
<path fill="none" stroke="black" d="M598,-166C598,-166 750,-166 750,-166 756,-166 762,-172 762,-178 762,-178 762,-410 762,-410 762,-416 756,-422 750,-422 750,-422 598,-422 598,-422 592,-422 586,-416 586,-410 586,-410 586,-178 586,-178 586,-172 592,-166 598,-166"/>
<text text-anchor="middle" x="674" y="-406.8" font-family="Times,serif" font-size="14.00">Profile</text>
<polyline fill="none" stroke="black" points="586,-399 762,-399 "/>
<text text-anchor="start" x="594" y="-383.8" font-family="Times,serif" font-size="14.00">id :integer</text>
<text text-anchor="start" x="594" y="-368.8" font-family="Times,serif" font-size="14.00">first_name :string</text>
<text text-anchor="start" x="594" y="-353.8" font-family="Times,serif" font-size="14.00">last_name :string</text>
<text text-anchor="start" x="594" y="-338.8" font-family="Times,serif" font-size="14.00">health_card_number :string</text>
<text text-anchor="start" x="594" y="-323.8" font-family="Times,serif" font-size="14.00">phone :string</text>
<text text-anchor="start" x="594" y="-308.8" font-family="Times,serif" font-size="14.00">date_of_birth :date</text>
<text text-anchor="start" x="594" y="-293.8" font-family="Times,serif" font-size="14.00">created_at :datetime</text>
<text text-anchor="start" x="594" y="-278.8" font-family="Times,serif" font-size="14.00">updated_at :datetime</text>
<text text-anchor="start" x="594" y="-263.8" font-family="Times,serif" font-size="14.00">user_id :integer</text>
<text text-anchor="start" x="594" y="-248.8" font-family="Times,serif" font-size="14.00">photo_file_name :string</text>
<text text-anchor="start" x="594" y="-233.8" font-family="Times,serif" font-size="14.00">photo_content_type :string</text>
<text text-anchor="start" x="594" y="-218.8" font-family="Times,serif" font-size="14.00">photo_file_size :integer</text>
<text text-anchor="start" x="594" y="-203.8" font-family="Times,serif" font-size="14.00">photo_updated_at :datetime</text>
<text text-anchor="start" x="594" y="-188.8" font-family="Times,serif" font-size="14.00">reason_description :string</text>
<text text-anchor="start" x="594" y="-173.8" font-family="Times,serif" font-size="14.00">address_id :integer</text>
</g>
<!-- State -->
<g id="node15" class="node"><title>State</title>
<path fill="none" stroke="black" d="M188.5,-541.5C188.5,-541.5 299.5,-541.5 299.5,-541.5 305.5,-541.5 311.5,-547.5 311.5,-553.5 311.5,-553.5 311.5,-620.5 311.5,-620.5 311.5,-626.5 305.5,-632.5 299.5,-632.5 299.5,-632.5 188.5,-632.5 188.5,-632.5 182.5,-632.5 176.5,-626.5 176.5,-620.5 176.5,-620.5 176.5,-553.5 176.5,-553.5 176.5,-547.5 182.5,-541.5 188.5,-541.5"/>
<text text-anchor="middle" x="244" y="-617.3" font-family="Times,serif" font-size="14.00">State</text>
<polyline fill="none" stroke="black" points="176.5,-609.5 311.5,-609.5 "/>
<text text-anchor="start" x="184.5" y="-594.3" font-family="Times,serif" font-size="14.00">id :integer</text>
<text text-anchor="start" x="184.5" y="-579.3" font-family="Times,serif" font-size="14.00">name :string</text>
<text text-anchor="start" x="184.5" y="-564.3" font-family="Times,serif" font-size="14.00">created_at :datetime</text>
<text text-anchor="start" x="184.5" y="-549.3" font-family="Times,serif" font-size="14.00">updated_at :datetime</text>
</g>
<!-- State&#45;&gt;Order -->
<g id="edge8" class="edge"><title>State&#45;&gt;Order</title>
<path fill="none" stroke="#49ba69" d="M244,-533.353C244,-496.855 244,-446.969 244,-402.266"/>
<ellipse fill="none" stroke="#49ba69" cx="244" cy="-537.487" rx="4" ry="4"/>
<polygon fill="#49ba69" stroke="#49ba69" points="244,-402.22 248.5,-392.22 244,-397.22 244,-392.22 244,-392.22 244,-392.22 244,-397.22 239.5,-392.22 244,-402.22 244,-402.22"/>
</g>
<!-- User -->
<g id="node16" class="node"><title>User</title>
<path fill="none" stroke="black" d="M581.5,-466.5C581.5,-466.5 766.5,-466.5 766.5,-466.5 772.5,-466.5 778.5,-472.5 778.5,-478.5 778.5,-478.5 778.5,-695.5 778.5,-695.5 778.5,-701.5 772.5,-707.5 766.5,-707.5 766.5,-707.5 581.5,-707.5 581.5,-707.5 575.5,-707.5 569.5,-701.5 569.5,-695.5 569.5,-695.5 569.5,-478.5 569.5,-478.5 569.5,-472.5 575.5,-466.5 581.5,-466.5"/>
<text text-anchor="middle" x="674" y="-692.3" font-family="Times,serif" font-size="14.00">User</text>
<polyline fill="none" stroke="black" points="569.5,-684.5 778.5,-684.5 "/>
<text text-anchor="start" x="577.5" y="-669.3" font-family="Times,serif" font-size="14.00">id :integer</text>
<text text-anchor="start" x="577.5" y="-654.3" font-family="Times,serif" font-size="14.00">email :string</text>
<text text-anchor="start" x="577.5" y="-639.3" font-family="Times,serif" font-size="14.00">encrypted_password :string</text>
<text text-anchor="start" x="577.5" y="-624.3" font-family="Times,serif" font-size="14.00">reset_password_token :string</text>
<text text-anchor="start" x="577.5" y="-609.3" font-family="Times,serif" font-size="14.00">reset_password_sent_at :datetime</text>
<text text-anchor="start" x="577.5" y="-594.3" font-family="Times,serif" font-size="14.00">remember_created_at :datetime</text>
<text text-anchor="start" x="577.5" y="-579.3" font-family="Times,serif" font-size="14.00">sign_in_count :integer</text>
<text text-anchor="start" x="577.5" y="-564.3" font-family="Times,serif" font-size="14.00">current_sign_in_at :datetime</text>
<text text-anchor="start" x="577.5" y="-549.3" font-family="Times,serif" font-size="14.00">last_sign_in_at :datetime</text>
<text text-anchor="start" x="577.5" y="-534.3" font-family="Times,serif" font-size="14.00">current_sign_in_ip :string</text>
<text text-anchor="start" x="577.5" y="-519.3" font-family="Times,serif" font-size="14.00">last_sign_in_ip :string</text>
<text text-anchor="start" x="577.5" y="-504.3" font-family="Times,serif" font-size="14.00">created_at :datetime</text>
<text text-anchor="start" x="577.5" y="-489.3" font-family="Times,serif" font-size="14.00">updated_at :datetime</text>
<text text-anchor="start" x="577.5" y="-474.3" font-family="Times,serif" font-size="14.00">profile_updated :boolean</text>
</g>
<!-- User&#45;&gt;Profile -->
<g id="edge9" class="edge"><title>User&#45;&gt;Profile</title>
<path fill="none" stroke="#f6e586" d="M674,-458.145C674,-448.913 674,-439.584 674,-430.311"/>
<ellipse fill="none" stroke="#f6e586" cx="674" cy="-462.379" rx="4" ry="4"/>
<ellipse fill="#f6e586" stroke="#f6e586" cx="674" cy="-426.18" rx="4" ry="4"/>
</g>
<!-- User&#45;&gt;Role -->
<g id="edge10" class="edge"><title>User&#45;&gt;Role</title>
<path fill="none" stroke="#0c8bcb" d="M786.656,-559.101C865.672,-535.641 969.847,-494.969 1043,-430 1067.63,-408.123 1086.29,-376.403 1099.06,-349.206"/>
<ellipse fill="none" stroke="#0c8bcb" cx="782.445" cy="-560.333" rx="4.00001" ry="4.00001"/>
<polygon fill="#0c8bcb" stroke="#0c8bcb" points="1099.2,-348.904 1107.43,-341.66 1101.26,-344.351 1103.33,-339.799 1103.33,-339.799 1103.33,-339.799 1101.26,-344.351 1099.23,-337.938 1099.2,-348.904 1099.2,-348.904"/>
</g>
<!-- User&#45;&gt;Prescription -->
<g id="edge11" class="edge"><title>User&#45;&gt;Prescription</title>
<path fill="none" stroke="#7add81" d="M774.994,-459.866C782.888,-450.007 790.878,-440.028 798.816,-430.113"/>
<ellipse fill="none" stroke="#7add81" cx="772.279" cy="-463.257" rx="4.00002" ry="4.00002"/>
<polygon fill="#7add81" stroke="#7add81" points="798.919,-429.986 808.682,-424.992 802.044,-426.083 805.169,-422.18 805.169,-422.18 805.169,-422.18 802.044,-426.083 801.656,-419.367 798.919,-429.986 798.919,-429.986"/>
</g>
<!-- User&#45;&gt;DoctorPatient -->
<g id="edge12" class="edge"><title>User&#45;&gt;DoctorPatient</title>
<path fill="none" stroke="#785f84" d="M589.269,-458.986C584.669,-449.394 580.506,-439.677 577,-430 535.426,-315.235 570.657,-275.886 539,-158 536.636,-149.196 533.68,-140.117 530.458,-131.215"/>
<ellipse fill="none" stroke="#785f84" cx="591.1" cy="-462.706" rx="4.00002" ry="4.00002"/>
<polygon fill="#785f84" stroke="#785f84" points="530.382,-131.012 531.088,-120.069 528.628,-126.329 526.874,-121.647 526.874,-121.647 526.874,-121.647 528.628,-126.329 522.66,-123.226 530.382,-131.012 530.382,-131.012"/>
</g>
<!-- User&#45;&gt;Doctor -->
<g id="edge13" class="edge"><title>User&#45;&gt;Doctor</title>
<path fill="none" stroke="#1d9e7b" d="M566.8,-458.359C559.032,-448.805 551.363,-439.276 544,-430 541.503,-426.854 538.982,-423.66 536.447,-420.43"/>
<polygon fill="#1d9e7b" stroke="#1d9e7b" points="567.025,-458.635 569.856,-469.229 570.185,-462.51 573.344,-466.385 573.344,-466.385 573.344,-466.385 570.185,-462.51 576.832,-463.542 567.025,-458.635 567.025,-458.635"/>
<polygon fill="#1d9e7b" stroke="#1d9e7b" points="536.279,-420.216 533.665,-409.567 533.2,-416.277 530.12,-412.338 530.12,-412.338 530.12,-412.338 533.2,-416.277 526.575,-415.11 536.279,-420.216 536.279,-420.216"/>
</g>
</g>
</svg>
