<?xml version="1.0" encoding="UTF-8" standalone="no"?>
<!DOCTYPE svg PUBLIC "-//W3C//DTD SVG 1.1//EN"
 "http://www.w3.org/Graphics/SVG/1.1/DTD/svg11.dtd">
<!-- Generated by graphviz version 2.30.1 (20130609.1635)
 -->
<!-- Title: models_diagram Pages: 1 -->
<svg width="747pt" height="302pt"
 viewBox="0.00 0.00 747.00 302.00" xmlns="http://www.w3.org/2000/svg" xmlns:xlink="http://www.w3.org/1999/xlink">
<g id="graph0" class="graph" transform="scale(1 1) rotate(0) translate(4 298)">
<title>models_diagram</title>
<polygon fill="white" stroke="white" points="-4,5 -4,-298 744,-298 744,5 -4,5"/>
<!-- _diagram_info -->
<g id="node1" class="node"><title>_diagram_info</title>
<text text-anchor="start" x="7.5" y="-279.6" font-family="Times,serif" font-size="13.00">Models diagram</text>
<text text-anchor="start" x="7.5" y="-265.6" font-family="Times,serif" font-size="13.00">Date: Jul 07 2013 &#45; 01:45</text>
<text text-anchor="start" x="7.5" y="-251.6" font-family="Times,serif" font-size="13.00">Migration version: 20130704060625</text>
<text text-anchor="start" x="7.5" y="-237.6" font-family="Times,serif" font-size="13.00">Generated by RailRoady 1.1.0</text>
<text text-anchor="start" x="7.5" y="-223.6" font-family="Times,serif" font-size="13.00">http://railroady.prestonlee.com</text>
</g>
<!-- Ability -->
<g id="node2" class="node"><title>Ability</title>
<polygon fill="none" stroke="black" points="283.25,-273 226.75,-273 226.75,-237 283.25,-237 283.25,-273"/>
<text text-anchor="middle" x="255" y="-251.3" font-family="Times,serif" font-size="14.00">Ability</text>
</g>
<!-- Address -->
<g id="node3" class="node"><title>Address</title>
<ellipse fill="none" stroke="black" cx="344" cy="-162" rx="41.394" ry="18"/>
<text text-anchor="middle" x="344" y="-158.3" font-family="Times,serif" font-size="14.00">Address</text>
</g>
<!-- Order -->
<g id="node11" class="node"><title>Order</title>
<ellipse fill="none" stroke="black" cx="256" cy="-90" rx="33.2209" ry="18"/>
<text text-anchor="middle" x="256" y="-86.3" font-family="Times,serif" font-size="14.00">Order</text>
</g>
<!-- Address&#45;&gt;Order -->
<g id="edge1" class="edge"><title>Address&#45;&gt;Order</title>
<path fill="none" stroke="#f062f8" d="M318.58,-140.78C307.056,-131.612 293.448,-120.788 281.871,-111.579"/>
<ellipse fill="none" stroke="#f062f8" cx="321.775" cy="-143.321" rx="4.00002" ry="4.00002"/>
<polygon fill="#f062f8" stroke="#f062f8" points="281.684,-111.43 276.659,-101.683 277.771,-108.318 273.858,-105.205 273.858,-105.205 273.858,-105.205 277.771,-108.318 271.056,-108.727 281.684,-111.43 281.684,-111.43"/>
</g>
<!-- Doctor -->
<g id="node7" class="node"><title>Doctor</title>
<ellipse fill="none" stroke="black" cx="344" cy="-90" rx="37.0701" ry="18"/>
<text text-anchor="middle" x="344" y="-86.3" font-family="Times,serif" font-size="14.00">Doctor</text>
</g>
<!-- Address&#45;&gt;Doctor -->
<g id="edge2" class="edge"><title>Address&#45;&gt;Doctor</title>
<path fill="none" stroke="#1c5f09" d="M344,-135.64C344,-130.063 344,-124.132 344,-118.476"/>
<ellipse fill="none" stroke="#1c5f09" cx="344" cy="-139.697" rx="4" ry="4"/>
<polygon fill="#1c5f09" stroke="#1c5f09" points="344,-118.104 348.5,-108.104 344,-113.104 344,-108.104 344,-108.104 344,-108.104 344,-113.104 339.5,-108.104 344,-118.104 344,-118.104"/>
</g>
<!-- AdminUser -->
<g id="node4" class="node"><title>AdminUser</title>
<ellipse fill="none" stroke="black" cx="685" cy="-162" rx="54.3924" ry="18"/>
<text text-anchor="middle" x="685" y="-158.3" font-family="Times,serif" font-size="14.00">AdminUser</text>
</g>
<!-- Role -->
<g id="node14" class="node"><title>Role</title>
<ellipse fill="none" stroke="black" cx="685" cy="-90" rx="28.3955" ry="18"/>
<text text-anchor="middle" x="685" y="-86.3" font-family="Times,serif" font-size="14.00">Role</text>
</g>
<!-- AdminUser&#45;&gt;Role -->
<g id="edge3" class="edge"><title>AdminUser&#45;&gt;Role</title>
<path fill="none" stroke="#96da1d" d="M685,-135.64C685,-130.063 685,-124.132 685,-118.476"/>
<ellipse fill="none" stroke="#96da1d" cx="685" cy="-139.697" rx="4" ry="4"/>
<polygon fill="#96da1d" stroke="#96da1d" points="685,-118.104 689.5,-108.104 685,-113.104 685,-108.104 685,-108.104 685,-108.104 685,-113.104 680.5,-108.104 685,-118.104 685,-118.104"/>
</g>
<!-- AdministrationMethod -->
<g id="node5" class="node"><title>AdministrationMethod</title>
<ellipse fill="none" stroke="black" cx="501" cy="-255" rx="96.2631" ry="18"/>
<text text-anchor="middle" x="501" y="-251.3" font-family="Times,serif" font-size="14.00">AdministrationMethod</text>
</g>
<!-- Country -->
<g id="node6" class="node"><title>Country</title>
<ellipse fill="none" stroke="black" cx="344" cy="-255" rx="42.3701" ry="18"/>
<text text-anchor="middle" x="344" y="-251.3" font-family="Times,serif" font-size="14.00">Country</text>
</g>
<!-- Country&#45;&gt;Address -->
<g id="edge4" class="edge"><title>Country&#45;&gt;Address</title>
<path fill="none" stroke="#2a40bd" d="M344,-228.729C344,-216.725 344,-202.362 344,-190.129"/>
<ellipse fill="none" stroke="#2a40bd" cx="344" cy="-232.884" rx="4" ry="4"/>
<polygon fill="#2a40bd" stroke="#2a40bd" points="344,-190.04 348.5,-180.04 344,-185.04 344,-180.04 344,-180.04 344,-180.04 344,-185.04 339.5,-180.04 344,-190.04 344,-190.04"/>
</g>
<!-- DoctorPatient -->
<g id="node8" class="node"><title>DoctorPatient</title>
<ellipse fill="none" stroke="black" cx="372" cy="-18" rx="62.0922" ry="18"/>
<text text-anchor="middle" x="372" y="-14.3" font-family="Times,serif" font-size="14.00">DoctorPatient</text>
</g>
<!-- Doctor&#45;&gt;DoctorPatient -->
<g id="edge5" class="edge"><title>Doctor&#45;&gt;DoctorPatient</title>
<path fill="none" stroke="#23f603" d="M353.781,-64.5475C356.229,-58.4284 358.866,-51.8347 361.353,-45.6163"/>
<ellipse fill="none" stroke="#23f603" cx="352.264" cy="-68.341" rx="4.00001" ry="4.00001"/>
<polygon fill="#23f603" stroke="#23f603" points="361.376,-45.5601 369.268,-37.9466 363.233,-40.9177 365.09,-36.2753 365.09,-36.2753 365.09,-36.2753 363.233,-40.9177 360.912,-34.604 361.376,-45.5601 361.376,-45.5601"/>
</g>
<!-- Item -->
<g id="node9" class="node"><title>Item</title>
<ellipse fill="none" stroke="black" cx="178" cy="-90" rx="26.949" ry="18"/>
<text text-anchor="middle" x="178" y="-86.3" font-family="Times,serif" font-size="14.00">Item</text>
</g>
<!-- LineItem -->
<g id="node10" class="node"><title>LineItem</title>
<ellipse fill="none" stroke="black" cx="227" cy="-18" rx="44.2946" ry="18"/>
<text text-anchor="middle" x="227" y="-14.3" font-family="Times,serif" font-size="14.00">LineItem</text>
</g>
<!-- Item&#45;&gt;LineItem -->
<g id="edge6" class="edge"><title>Item&#45;&gt;LineItem</title>
<path fill="none" stroke="#0c5de0" d="M193.572,-66.7546C198.678,-59.4607 204.383,-51.3106 209.614,-43.8374"/>
<ellipse fill="none" stroke="#0c5de0" cx="191.169" cy="-70.1878" rx="4.00002" ry="4.00002"/>
<polygon fill="#0c5de0" stroke="#0c5de0" points="209.738,-43.6595 219.16,-38.0478 212.606,-39.5633 215.473,-35.4672 215.473,-35.4672 215.473,-35.4672 212.606,-39.5633 211.786,-32.8866 209.738,-43.6595 209.738,-43.6595"/>
</g>
<!-- Order&#45;&gt;LineItem -->
<g id="edge7" class="edge"><title>Order&#45;&gt;LineItem</title>
<path fill="none" stroke="#19c743" d="M245.821,-64.4306C243.246,-58.214 240.47,-51.5142 237.862,-45.2195"/>
<ellipse fill="none" stroke="#19c743" cx="247.449" cy="-68.3595" rx="4.00001" ry="4.00001"/>
<polygon fill="#19c743" stroke="#19c743" points="237.783,-45.0276 238.113,-34.0666 235.869,-40.4083 233.955,-35.789 233.955,-35.789 233.955,-35.789 235.869,-40.4083 229.798,-37.5114 237.783,-45.0276 237.783,-45.0276"/>
</g>
<!-- Prescription -->
<g id="node12" class="node"><title>Prescription</title>
<ellipse fill="none" stroke="black" cx="583" cy="-90" rx="55.3436" ry="18"/>
<text text-anchor="middle" x="583" y="-86.3" font-family="Times,serif" font-size="14.00">Prescription</text>
</g>
<!-- Profile -->
<g id="node13" class="node"><title>Profile</title>
<ellipse fill="none" stroke="black" cx="473" cy="-90" rx="36.096" ry="18"/>
<text text-anchor="middle" x="473" y="-86.3" font-family="Times,serif" font-size="14.00">Profile</text>
</g>
<!-- State -->
<g id="node15" class="node"><title>State</title>
<ellipse fill="none" stroke="black" cx="256" cy="-162" rx="28.3955" ry="18"/>
<text text-anchor="middle" x="256" y="-158.3" font-family="Times,serif" font-size="14.00">State</text>
</g>
<!-- State&#45;&gt;Order -->
<g id="edge8" class="edge"><title>State&#45;&gt;Order</title>
<path fill="none" stroke="#76044f" d="M256,-135.64C256,-130.063 256,-124.132 256,-118.476"/>
<ellipse fill="none" stroke="#76044f" cx="256" cy="-139.697" rx="4" ry="4"/>
<polygon fill="#76044f" stroke="#76044f" points="256,-118.104 260.5,-108.104 256,-113.104 256,-108.104 256,-108.104 256,-108.104 256,-113.104 251.5,-108.104 256,-118.104 256,-118.104"/>
</g>
<!-- User -->
<g id="node16" class="node"><title>User</title>
<ellipse fill="none" stroke="black" cx="473" cy="-162" rx="28.3955" ry="18"/>
<text text-anchor="middle" x="473" y="-158.3" font-family="Times,serif" font-size="14.00">User</text>
</g>
<!-- User&#45;&gt;Profile -->
<g id="edge9" class="edge"><title>User&#45;&gt;Profile</title>
<path fill="none" stroke="#c7335c" d="M473,-135.64C473,-129.348 473,-122.605 473,-116.316"/>
<ellipse fill="none" stroke="#c7335c" cx="473" cy="-139.697" rx="4" ry="4"/>
<ellipse fill="#c7335c" stroke="#c7335c" cx="473" cy="-112.104" rx="4" ry="4"/>
</g>
<!-- User&#45;&gt;Role -->
<g id="edge10" class="edge"><title>User&#45;&gt;Role</title>
<path fill="none" stroke="#a8e0ac" d="M506.764,-152.066C542.129,-142.396 599.086,-125.935 647,-108 649.09,-107.218 651.228,-106.377 653.373,-105.503"/>
<ellipse fill="none" stroke="#a8e0ac" cx="502.552" cy="-153.21" rx="4.00001" ry="4.00001"/>
<polygon fill="#a8e0ac" stroke="#a8e0ac" points="653.487,-105.455 664.451,-105.68 658.088,-103.497 662.688,-101.539 662.688,-101.539 662.688,-101.539 658.088,-103.497 660.926,-97.3982 653.487,-105.455 653.487,-105.455"/>
</g>
<!-- User&#45;&gt;Prescription -->
<g id="edge11" class="edge"><title>User&#45;&gt;Prescription</title>
<path fill="none" stroke="#4edad2" d="M499.278,-144.278C514.526,-134.574 533.87,-122.265 550.121,-111.923"/>
<ellipse fill="none" stroke="#4edad2" cx="495.787" cy="-146.499" rx="4.00002" ry="4.00002"/>
<polygon fill="#4edad2" stroke="#4edad2" points="550.349,-111.778 561.202,-110.206 554.567,-109.094 558.786,-106.409 558.786,-106.409 558.786,-106.409 554.567,-109.094 556.37,-102.613 550.349,-111.778 550.349,-111.778"/>
</g>
<!-- User&#45;&gt;DoctorPatient -->
<g id="edge12" class="edge"><title>User&#45;&gt;DoctorPatient</title>
<path fill="none" stroke="#b0c817" d="M453.92,-139.937C445.629,-130.435 436.004,-118.914 428,-108 412.922,-87.4412 397.63,-62.8265 386.843,-44.6995"/>
<ellipse fill="none" stroke="#b0c817" cx="456.764" cy="-143.161" rx="4.00002" ry="4.00002"/>
<polygon fill="#b0c817" stroke="#b0c817" points="386.716,-44.4829 385.516,-33.5829 384.177,-40.1752 381.639,-35.8675 381.639,-35.8675 381.639,-35.8675 384.177,-40.1752 377.762,-38.1522 386.716,-44.4829 386.716,-44.4829"/>
</g>
<!-- User&#45;&gt;Doctor -->
<g id="edge13" class="edge"><title>User&#45;&gt;Doctor</title>
<path fill="none" stroke="#63dd33" d="M443.075,-144.762C423.303,-134.033 397.377,-119.964 377.005,-108.91"/>
<polygon fill="#63dd33" stroke="#63dd33" points="443.197,-144.828 449.841,-153.553 447.592,-147.213 451.987,-149.597 451.987,-149.597 451.987,-149.597 447.592,-147.213 454.133,-145.642 443.197,-144.828 443.197,-144.828"/>
<polygon fill="#63dd33" stroke="#63dd33" points="376.868,-108.835 370.225,-100.111 372.473,-106.451 368.078,-104.066 368.078,-104.066 368.078,-104.066 372.473,-106.451 365.932,-108.021 376.868,-108.835 376.868,-108.835"/>
</g>
</g>
</svg>
